<svg width="341" height="317" viewBox="0 0 341 317" fill="none" xmlns="http://www.w3.org/2000/svg">
<path d="M194.762 171.883C208.605 145.849 226.452 125.133 244.095 112.678C261.763 100.205 279.088 96.1011 291.999 102.966C304.91 109.831 311.196 126.488 310.735 148.111C310.275 169.702 303.08 196.082 289.238 222.117C275.395 248.151 257.548 268.867 239.905 281.322C222.237 293.795 204.912 297.899 192.001 291.034C179.09 284.169 172.804 267.512 173.265 245.889C173.725 224.298 180.92 197.918 194.762 171.883Z" fill="#E100FF" fill-opacity="0.05" stroke="#E100FF"/>
<path d="M158.762 152.883C172.605 126.849 190.452 106.133 208.095 93.6781C225.763 81.2045 243.088 77.1011 255.999 83.9661C268.91 90.831 275.196 107.488 274.735 129.111C274.275 150.702 267.08 177.082 253.238 203.117C239.395 229.151 221.548 249.867 203.905 262.322C186.237 274.795 168.912 278.899 156.001 272.034C143.09 265.169 136.804 248.512 137.265 226.889C137.725 205.298 144.92 178.918 158.762 152.883Z" fill="#E100FF" fill-opacity="0.05" stroke="#E100FF"/>
<path opacity="0.75" d="M124.645 134.353C138.489 108.317 156.238 87.5481 173.722 75.0079C191.234 62.4474 208.336 58.2331 220.999 64.9661C233.662 71.6991 239.731 88.2335 239.111 109.776C238.491 131.283 231.198 157.612 217.355 183.647C203.511 209.683 185.762 230.452 168.278 242.992C150.766 255.553 133.664 259.767 121.001 253.034C108.338 246.301 102.269 229.766 102.889 208.224C103.509 186.717 110.802 160.388 124.645 134.353Z" fill="#E100FF" fill-opacity="0.05" stroke="#E100FF"/>
<path opacity="0.5" d="M87.7623 113.883C101.605 87.8489 119.452 67.1331 137.095 54.6781C154.763 42.2045 172.088 38.1011 184.999 44.9661C197.91 51.831 204.196 68.4884 203.735 90.1113C203.275 111.702 196.08 138.082 182.238 164.117C168.395 190.151 150.548 210.867 132.905 223.322C115.237 235.795 97.9124 239.899 85.0013 233.034C72.0902 226.169 65.8043 209.512 66.2652 187.889C66.7254 166.298 73.9196 139.918 87.7623 113.883Z" fill="#E100FF" fill-opacity="0.05" stroke="#E100FF"/>
<path opacity="0.25" d="M51.6452 95.3527C65.4886 69.3172 83.2379 48.5481 100.722 36.0079C118.234 23.4474 135.336 19.2331 147.999 25.9661C160.662 32.6991 166.731 49.2335 166.111 70.7756C165.491 92.2829 158.198 118.612 144.355 144.647C130.511 170.683 112.762 191.452 95.2781 203.992C77.7658 216.553 60.6642 220.767 48.0013 214.034C35.3383 207.301 29.2691 190.766 29.8894 169.224C30.5088 147.717 37.8019 121.388 51.6452 95.3527Z" fill="#E100FF" fill-opacity="0.05" stroke="#E100FF"/>
</svg>
